# xmcd CD database file generated by Grip 3.0.4
# 
# Track frame offsets:
#       150
#       13762
#       33772
#       53842
#       75355
#       93092
#       112260
#       130995
#       162030
#       181577
#       199577
#       219022
# 
# Disc length: 3168 seconds
# 
# Revision: 1
# Processed by: cddbd v1.4PL0 Copyright (c) Steve Scherf et al.
# Submitted via: Grip 3.0.4
# 
DISCID=870c5e0c
DTITLE=Alex Roeka - Wildernis
DYEAR=1998
DGENRE=Easy Listening
TTITLE0=Het Schip Genaamd 'De Nacht'
TTITLE1=Schotwond In M'n Ziel
TTITLE2=Blues Bij Deur Waar De Man Staat
TTITLE3=Help Me, Ik Ben Echt
TTITLE4=Laat Je Maar Zinken
TTITLE5=Noem 'T Geen Liefde
TTITLE6=Kermis In Ravenstein
TTITLE7=De Mannenwoestijn
TTITLE8=Dronken Ochtendkade
TTITLE9=De Lange Liefde Lang
TTITLE10=Steeds Dichter Bij De Grond
TTITLE11=Vader
EXTD=
EXTT0=
EXTT1=
EXTT2=
EXTT3=
EXTT4=
EXTT5=
EXTT6=
EXTT7=
EXTT8=
EXTT9=
EXTT10=
EXTT11=
PLAYORDER=
